<?xml version="1.0" standalone="no"?>
<!DOCTYPE svg PUBLIC "-//W3C//DTD SVG 20010904//EN"
 "http://www.w3.org/TR/2001/REC-SVG-20010904/DTD/svg10.dtd">
<svg version="1.0" xmlns="http://www.w3.org/2000/svg"
 width="512.000000pt" height="512.000000pt" viewBox="0 0 512.000000 512.000000"
 preserveAspectRatio="xMidYMid meet">
<metadata>
Created by potrace 1.14, written by Peter Selinger 2001-2017
</metadata>
<g transform="translate(0.000000,512.000000) scale(0.100000,-0.100000)"
fill="#000000" stroke="none">
<path d="M2467 4904 c-1 -1 -40 -5 -87 -8 -47 -3 -94 -8 -105 -10 -11 -2 -40
-7 -65 -10 -241 -33 -577 -153 -785 -279 -386 -235 -658 -514 -877 -897 -115
-202 -223 -493 -263 -708 -3 -15 -7 -38 -10 -52 -63 -344 -49 -725 41 -1068
190 -732 697 -1325 1374 -1610 214 -89 453 -149 680 -168 81 -7 343 -7 400 0
19 2 60 7 90 11 223 27 526 120 725 223 522 270 918 707 1135 1252 36 90 94
270 104 324 2 12 9 41 15 66 16 70 27 140 37 225 3 33 8 69 11 80 5 24 4 398
-1 440 -2 17 -7 55 -10 85 -43 343 -155 670 -329 960 -50 84 -63 103 -141 210
-98 134 -266 309 -401 418 -207 168 -435 297 -678 383 -122 44 -302 91 -397
104 -19 3 -51 7 -70 10 -92 13 -384 27 -393 19z"/>
</g>
</svg>
