<svg width="52" height="52" viewBox="0 0 52 52" fill="none" xmlns="http://www.w3.org/2000/svg">
<g filter="url(#filter0_d_199_2313)">
<rect x="2" y="1" width="48" height="48" rx="12" fill="white"/>
<rect x="2.5" y="1.5" width="47" height="47" rx="11.5" stroke="#FFF2D6"/>
<path d="M10 19.82H42C42 28.66 34.84 35.82 26 35.82C17.16 35.82 10 28.66 10 19.82Z" fill="url(#paint0_linear_199_2313)"/>
<path d="M42 19.82C42 22.03 40.51 24.47 36.59 24.47C33.17 24.47 29.32 22.1 26 19.82C29.52 17.39 33.39 14.19 36.59 14.19C39.86 14.18 42 17.17 42 19.82Z" fill="url(#paint1_linear_199_2313)"/>
<path d="M10 19.82C10 22.03 11.49 24.47 15.41 24.47C18.83 24.47 22.68 22.1 26 19.82C22.48 17.39 18.61 14.18 15.41 14.18C12.14 14.18 10 17.17 10 19.82Z" fill="url(#paint2_linear_199_2313)"/>
</g>
<defs>
<filter id="filter0_d_199_2313" x="0" y="0" width="52" height="52" filterUnits="userSpaceOnUse" color-interpolation-filters="sRGB">
<feFlood flood-opacity="0" result="BackgroundImageFix"/>
<feColorMatrix in="SourceAlpha" type="matrix" values="0 0 0 0 0 0 0 0 0 0 0 0 0 0 0 0 0 0 127 0" result="hardAlpha"/>
<feOffset dy="1"/>
<feGaussianBlur stdDeviation="1"/>
<feColorMatrix type="matrix" values="0 0 0 0 0.32549 0 0 0 0 0 0 0 0 0 0.192157 0 0 0 0.1 0"/>
<feBlend mode="normal" in2="BackgroundImageFix" result="effect1_dropShadow_199_2313"/>
<feBlend mode="normal" in="SourceGraphic" in2="effect1_dropShadow_199_2313" result="shape"/>
</filter>
<linearGradient id="paint0_linear_199_2313" x1="26" y1="22.371" x2="26" y2="35.161" gradientUnits="userSpaceOnUse">
<stop stop-color="#00D924"/>
<stop offset="1" stop-color="#00CB1B"/>
</linearGradient>
<linearGradient id="paint1_linear_199_2313" x1="34" y1="14.371" x2="34" y2="25.756" gradientUnits="userSpaceOnUse">
<stop offset="0.156" stop-color="#009C00"/>
<stop offset="1" stop-color="#00BE20"/>
</linearGradient>
<linearGradient id="paint2_linear_199_2313" x1="18" y1="26.251" x2="18" y2="13.876" gradientUnits="userSpaceOnUse">
<stop stop-color="#FFE37D"/>
<stop offset="1" stop-color="#FFC900"/>
</linearGradient>
</defs>
</svg>
